<?xml version="1.0" encoding="UTF-8"?><svg xmlns="http://www.w3.org/2000/svg" xmlns:xlink="http://www.w3.org/1999/xlink" height="17.0" preserveAspectRatio="xMidYMid meet" version="1.0" viewBox="2.0 6.0 25.0 17.0" width="25.0" zoomAndPan="magnify"><g id="change1_1"><path d="M12.5 7.5a.5.5 0 0 0-.5.5v13a.5.5 0 0 0 1 0V8a.5.5 0 0 0-.5-.5z"/></g><g id="change1_2"><path d="M8.5 9.5a.5.5 0 0 0-.5.5v9a.5.5 0 0 0 1 0v-9a.5.5 0 0 0-.5-.5z"/></g><g id="change1_3"><path d="M4.5 12a.5.5 0 0 0-.5.5v4a.5.5 0 0 0 1 0v-4a.5.5 0 0 0-.5-.5z"/></g><g id="change1_4"><path d="M2.5 13a.5.5 0 0 0-.5.5v2a.5.5 0 0 0 1 0v-2a.5.5 0 0 0-.5-.5z"/></g><g id="change1_5"><path d="M16.5 11.5a.5.5 0 0 0-.5.5v5a.5.5 0 0 0 1 0v-5a.5.5 0 0 0-.5-.5z"/></g><g id="change1_6"><path d="M14.5 10a.5.5 0 0 0-.5.5v8a.5.5 0 0 0 1 0v-8a.5.5 0 0 0-.5-.5z"/></g><g id="change1_7"><path d="M10.5 6a.5.5 0 0 0-.5.5v16a.5.5 0 0 0 1 0v-16a.5.5 0 0 0-.5-.5z"/></g><g id="change1_8"><path d="M6.5 11.5a.5.5 0 0 0-.5.5v5a.5.5 0 0 0 1 0v-5a.5.5 0 0 0-.5-.5z"/></g><g id="change1_9"><path d="M18.5 10a.5.5 0 0 0-.5.5v8a.5.5 0 0 0 1 0v-8a.5.5 0 0 0-.5-.5z"/></g><g id="change1_10"><path d="M20.5 9a.5.5 0 0 0-.5.5v10a.5.5 0 0 0 1 0v-10a.5.5 0 0 0-.5-.5z"/></g><g id="change1_11"><path d="M24.5 12a.5.5 0 0 0-.5.5v4a.5.5 0 0 0 1 0v-4a.5.5 0 0 0-.5-.5z"/></g><g id="change1_12"><path d="M22.5 10.5a.5.5 0 0 0-.5.5v7a.5.5 0 0 0 1 0v-7a.5.5 0 0 0-.5-.5z"/></g><g id="change1_13"><path d="M26.5 13a.5.5 0 0 0-.5.5v2a.5.5 0 0 0 1 0v-2a.5.5 0 0 0-.5-.5z"/></g></svg>