<?xml version="1.0" encoding="UTF-8"?><svg xmlns="http://www.w3.org/2000/svg" xmlns:xlink="http://www.w3.org/1999/xlink" height="54.0" preserveAspectRatio="xMidYMid meet" version="1.0" viewBox="2.0 5.0 60.0 54.0" width="60.0" zoomAndPan="magnify"><g><g id="change1_1"><path d="M42.8623047,36.4829102c-0.5527344,0-1,0.4477539-1,1c0,5.4379883-3.9375,9.8618164-8.7763672,9.8618164h-2.171875 c-4.8388672,0-8.7763672-4.4238281-8.7763672-9.8618164c-0.0171394-1.3098145-1.9800949-1.3170395-1.9999943,0.0000458 C20.1375637,44.0555305,25.0188332,49.3953171,31,49.3447266V57h-2.6210938c-0.5527344,0-1,0.4477539-1,1s0.4472656,1,1,1 h7.2421875c0.5527344,0,1-0.4477539,1-1s-0.4472656-1-1-1H33v-7.6552734 c5.9811668,0.0505905,10.8624382-5.289196,10.8623047-11.8618164 C43.8623047,36.9306641,43.4150391,36.4829102,42.8623047,36.4829102z"/><path d="M23.7597656,30.6899414v5.1298828c0.4583588,11.5444374,16.0239182,11.5408325,16.480484-0.000061 c-0.101963-2.0159149,0.3190231-6.2901421-0.5224762-8.1386108c-2.5450287-7.4794636-12.7883549-7.550806-15.4238281-0.0317383 C23.9394531,28.5966797,23.7597656,29.6196289,23.7597656,30.6899414z M25.7597656,30.6899414 c0-0.8300781,0.1367188-1.6171875,0.4150391-2.3603516c1.9842148-5.7606888,9.7563477-5.6853199,11.6572266,0.0170898 c0.6852684,1.4956493,0.3250198,5.828434,0.4082642,7.4731522c-0.3200417,8.8782921-12.1612225,8.8771553-12.4805393-0.0000877 C25.7597656,35.8198242,25.7597656,30.6899414,25.7597656,30.6899414z"/><path d="M61,5H3C2.4472656,5,2,5.4477539,2,6v22c0,0.5522461,0.4472656,1,1,1h18.0595703c0.5527344,0,1-0.4477539,1-1 s-0.4472656-1-1-1H4V7h56v20H42.9296875c-1.3068962,0.0177135-1.3199539,1.9787712,0.0000496,1.9999962C42.9296875,29,61,29,61,29 c0.5527344,0,1-0.4477539,1-1V6C62,5.4477539,61.5527344,5,61,5z"/><path d="M33,18v-7c-0.0213394-1.3123646-1.9779625-1.3160191-1.9999981,0.0000439C31,11,31,18,31,18 C31.0213394,19.3123646,32.9779625,19.3160191,33,18z"/><path d="M38.6669922,22.5c0.5527344,0,1-0.4477539,1-1v-7c0-0.5522461-0.4472656-1-1-1s-1,0.4477539-1,1v7 C37.6669922,22.0522461,38.1142578,22.5,38.6669922,22.5z"/><path d="M46.3330078,23.8334961V12.1665039c-0.0208778-1.3108807-1.9778175-1.3172417-1.9999962,0.0000458 c-0.0000038-0.0000458-0.0000038,11.6669464-0.0000038,11.6669464 C44.3538857,25.1443768,46.3108253,25.1507378,46.3330078,23.8334961z"/><path d="M53,21.5v-7c-0.0213394-1.3123646-1.9779625-1.3160191-2,0.0000439C51,14.5,51,21.5,51,21.5 C51.0213394,22.8123646,52.9779625,22.8160191,53,21.5z"/><path d="M26.3330078,21.5v-7c-0.0213394-1.3123646-1.9779625-1.3160191-1.9999981,0.0000439 C24.3330078,14.5,24.3330078,21.5,24.3330078,21.5C24.3543472,22.8123646,26.3109703,22.8160191,26.3330078,21.5z"/><path d="M17.6669922,12.1665039v11.6669922c0.0208797,1.3108807,1.9778156,1.3172417,1.9999981-0.0000458 c0.0000019,0.0000458,0.0000019-11.6669464,0.0000019-11.6669464 C19.6461124,10.8556232,17.6891766,10.8492622,17.6669922,12.1665039z"/><path d="M11,14.5v7c0.0213394,1.3123646,1.9779625,1.3160191,1.9999981-0.0000439C13,21.5,13,14.5,13,14.5 C12.9786606,13.1876354,11.0220375,13.1839809,11,14.5z"/></g></g></svg>